<svg width="192" height="192" viewBox="0 0 192 192" fill="none" xmlns="http://www.w3.org/2000/svg">
  <path d="M96 14C72 37 58 66 58 95C58 131 74 160 96 176C118 160 134 131 134 95C134 66 120 37 96 14Z" stroke="#377082" stroke-width="7" stroke-linecap="round" stroke-linejoin="round"/>
  <path d="M38 49C25 75 17 103 17 127C17 163 39 182 68 182C96 182 112 164 112 143C112 112 88 86 38 49Z" stroke="#377082" stroke-width="7" stroke-linecap="round" stroke-linejoin="round"/>
  <path d="M154 49C104 86 80 112 80 143C80 164 96 182 124 182C153 182 175 163 175 127C175 103 167 75 154 49Z" stroke="#377082" stroke-width="7" stroke-linecap="round" stroke-linejoin="round"/>
  <path d="M96 77C75 96 66 117 66 135C66 153 79 167 96 167C113 167 126 153 126 135C126 117 117 96 96 77Z" stroke="#377082" stroke-width="7" stroke-linecap="round" stroke-linejoin="round"/>
</svg>
