<svg width="800" height="600" viewBox="0 0 800 600" xmlns="http://www.w3.org/2000/svg">
  <defs>
    <linearGradient id="grad1" x1="0%" y1="0%" x2="100%" y2="100%">
      <stop offset="0%" style="stop-color:#377082;stop-opacity:0.1" />
      <stop offset="100%" style="stop-color:#2c5d6b;stop-opacity:0.1" />
    </linearGradient>
  </defs>
  <rect width="800" height="600" fill="url(#grad1)"/>
  <!-- Simple neural network representation -->
  <circle cx="200" cy="150" r="20" fill="#377082" opacity="0.3"/>
  <circle cx="200" cy="250" r="20" fill="#377082" opacity="0.3"/>
  <circle cx="200" cy="350" r="20" fill="#377082" opacity="0.3"/>
  <circle cx="200" cy="450" r="20" fill="#377082" opacity="0.3"/>
  
  <circle cx="400" cy="200" r="20" fill="#377082" opacity="0.3"/>
  <circle cx="400" cy="300" r="20" fill="#377082" opacity="0.3"/>
  <circle cx="400" cy="400" r="20" fill="#377082" opacity="0.3"/>
  
  <circle cx="600" cy="300" r="25" fill="#377082" opacity="0.4"/>
  
  <line x1="220" y1="150" x2="380" y2="200" stroke="#377082" stroke-width="2" opacity="0.2"/>
  <line x1="220" y1="250" x2="380" y2="200" stroke="#377082" stroke-width="2" opacity="0.2"/>
  <line x1="220" y1="250" x2="380" y2="300" stroke="#377082" stroke-width="2" opacity="0.2"/>
  <line x1="220" y1="350" x2="380" y2="300" stroke="#377082" stroke-width="2" opacity="0.2"/>
  <line x1="220" y1="350" x2="380" y2="400" stroke="#377082" stroke-width="2" opacity="0.2"/>
  <line x1="220" y1="450" x2="380" y2="400" stroke="#377082" stroke-width="2" opacity="0.2"/>
  
  <line x1="420" y1="200" x2="575" y2="300" stroke="#377082" stroke-width="2" opacity="0.2"/>
  <line x1="420" y1="300" x2="575" y2="300" stroke="#377082" stroke-width="2" opacity="0.2"/>
  <line x1="420" y1="400" x2="575" y2="300" stroke="#377082" stroke-width="2" opacity="0.2"/>
</svg>